<svg width="143" height="32" viewBox="0 0 143 32" fill="none" xmlns="http://www.w3.org/2000/svg">
<path d="M14.9852 28.4376C15.1797 27.9367 15.2725 27.4021 15.258 26.865C15.2877 25.3764 15.6855 23.9184 16.416 22.621C17.1447 21.3258 18.1838 20.2321 19.44 19.438C19.9051 19.1885 20.3148 18.8473 20.6442 18.4349C20.9737 18.0225 21.216 17.5476 21.3566 17.0389C21.4972 16.5301 21.5331 15.9982 21.4622 15.4751C21.3913 14.9521 21.215 14.4489 20.944 13.996C20.582 13.391 20.061 12.895 19.44 12.565C19.084 12.318 18.742 12.052 18.416 11.767L17.599 10.967C16.1019 9.3932 15.2624 7.30708 15.252 5.135C15.2675 4.59777 15.1752 4.06288 14.9806 3.56188C14.786 3.06089 14.493 2.60395 14.119 2.218C13.7466 1.83249 13.3004 1.52595 12.807 1.31668C12.3135 1.10742 11.783 0.999714 11.247 1C10.7113 1.00076 10.1812 1.10894 9.68811 1.31815C9.19497 1.52735 8.74881 1.83334 8.376 2.218C8.00262 2.60462 7.71011 3.06183 7.51556 3.56287C7.32102 4.06391 7.22836 4.59872 7.243 5.136C7.25174 5.83344 7.44384 6.5163 7.8 7.116C8.15494 7.71469 8.66169 8.20902 9.269 8.549C11.728 10.105 13.439 13.08 13.439 16.006C13.4329 18.1592 12.6094 20.2298 11.135 21.799L9.275 23.451C8.668 23.79 8.161 24.284 7.805 24.884C7.448 25.483 7.257 26.167 7.248 26.865C7.23271 27.4022 7.32507 27.9371 7.51965 28.438C7.71423 28.939 8.0071 29.396 8.381 29.782C8.75344 30.1674 9.19967 30.4739 9.6931 30.6832C10.1865 30.8924 10.717 31.0002 11.253 31C11.7888 30.9994 12.3191 30.8913 12.8124 30.682C13.3057 30.4728 13.7521 30.1668 14.125 29.782C14.4982 29.3955 14.7906 28.9384 14.9852 28.4376Z" fill="#0F62FE"/>
<path d="M20.417 7.36C19.976 6.698 19.741 5.919 19.741 5.123C19.7417 4.05673 20.1641 3.034 20.916 2.278C21.5698 1.62024 22.4321 1.2105 23.355 1.11909C24.2779 1.02768 25.2039 1.26028 25.974 1.777C26.6337 2.2199 27.1473 2.84836 27.45 3.583C27.7527 4.31848 27.8318 5.12692 27.6772 5.9071C27.5226 6.68728 27.1413 7.40452 26.581 7.969C26.0224 8.53193 25.3087 8.91563 24.5311 9.07112C23.7535 9.22661 22.9471 9.14685 22.215 8.842C21.4822 8.53685 20.8564 8.02107 20.417 7.36Z" fill="#0F62FE"/>
<path d="M21.522 23.518C22.181 23.076 22.956 22.84 23.748 22.84V22.838C24.2745 22.8386 24.7957 22.9432 25.2816 23.1457C25.7676 23.3482 26.2088 23.6446 26.58 24.018C27.2359 24.6779 27.6439 25.544 27.735 26.47C27.8261 27.3959 27.5948 28.3249 27.08 29.1C26.6406 29.762 26.0144 30.2785 25.281 30.584C24.5489 30.8888 23.7426 30.9686 22.9649 30.8131C22.1873 30.6576 21.4736 30.2739 20.915 29.711C20.3545 29.1464 19.9731 28.429 19.8185 27.6486C19.6639 26.8683 19.743 26.0596 20.046 25.324C20.3488 24.5894 20.8624 23.9609 21.522 23.518Z" fill="#0F62FE"/>
<path d="M33.325 13.758C33.7648 14.4198 33.9998 15.1974 34 15.9931C33.9993 17.0597 33.577 18.0827 32.825 18.839C32.4537 19.2122 32.0125 19.5086 31.5265 19.7111C31.0406 19.9136 30.5195 20.0182 29.993 20.019C29.2001 20.019 28.4252 19.783 27.767 19.341C27.1073 18.8981 26.5937 18.2696 26.291 17.535C25.9881 16.7994 25.9089 15.9907 26.0635 15.2104C26.2181 14.43 26.5995 13.7126 27.16 13.148C27.7187 12.5849 28.4325 12.2011 29.2104 12.0456C29.9882 11.8901 30.7948 11.9699 31.527 12.275C32.2599 12.5804 32.8857 13.0966 33.325 13.758Z" fill="#0F62FE"/>
<path d="M2.781 12.647C3.44 12.205 4.214 11.969 5.007 11.969C5.53335 11.9701 6.05431 12.075 6.54008 12.2776C7.02585 12.4803 7.46691 12.7767 7.838 13.15C8.49361 13.8097 8.90142 14.6754 8.99252 15.601C9.08362 16.5265 8.85243 17.4552 8.338 18.23C7.89867 18.8914 7.27291 19.4075 6.54 19.713C5.80764 20.0164 5.00167 20.0953 4.22435 19.9399C3.44703 19.7845 2.7334 19.4017 2.174 18.84C1.6137 18.2755 1.23239 17.5583 1.07782 16.7781C0.923238 15.9979 1.00227 15.1895 1.305 14.454C1.60759 13.719 2.12122 13.0902 2.781 12.647Z" fill="#0F62FE"/>
<path d="M50.4309 18.0632H50.3893L47.8918 23.7895H44L48.1 16L44.1041 8.42105H47.9959L50.4725 13.9368H50.5142L52.9908 8.42105H56.7994L52.8035 16L56.9034 23.7895H52.9284L50.4309 18.0632Z" fill="#0F62FE"/>
<path d="M61.5933 17.3474H65.8806C65.8667 15.7333 65.1591 14.9263 63.7578 14.9263C63.1195 14.9263 62.6131 15.1368 62.2385 15.5579C61.8639 15.9649 61.6488 16.5614 61.5933 17.3474ZM61.6141 19.4316C61.7112 20.1193 61.9957 20.6596 62.4674 21.0526C62.953 21.4316 63.5774 21.6211 64.3405 21.6211C65.3672 21.6211 66.3731 21.3684 67.3582 20.8632L68.0867 23.1579C66.8518 23.7193 65.499 24 64.0283 24C62.3079 24 60.9204 23.4877 59.8659 22.4632C58.8253 21.4386 58.305 20.0561 58.305 18.3158C58.305 16.5614 58.7906 15.1789 59.7618 14.1684C60.7331 13.1439 62.0373 12.6316 63.6745 12.6316C65.3533 12.6316 66.6576 13.1228 67.5872 14.1053C68.5168 15.0737 68.9816 16.4632 68.9816 18.2737C68.9816 18.7088 68.9538 19.0947 68.8983 19.4316H61.6141Z" fill="#0F62FE"/>
<path d="M71.9385 12.8421H75.1019L75.1227 14.9474H75.1644C76.3715 13.4035 78.0226 12.6316 80.1176 12.6316V15.3263C78.5637 15.3263 77.3774 15.6632 76.5588 16.3368C75.7402 17.0105 75.3309 17.9298 75.3309 19.0947V23.7895H71.9385V12.8421Z" fill="#0F62FE"/>
<path d="M83.6214 14.1684C84.6065 13.1439 85.9662 12.6316 87.7005 12.6316C89.4349 12.6316 90.7876 13.1439 91.7589 14.1684C92.744 15.1789 93.2365 16.5614 93.2365 18.3158C93.2365 20.0702 92.744 21.4596 91.7589 22.4842C90.7876 23.4947 89.4349 24 87.7005 24C85.9662 24 84.6065 23.4947 83.6214 22.4842C82.6363 21.4596 82.1437 20.0702 82.1437 18.3158C82.1437 16.5614 82.6363 15.1789 83.6214 14.1684ZM87.7005 21.5368C89.199 21.5368 89.9482 20.4632 89.9482 18.3158C89.9482 16.1684 89.199 15.0947 87.7005 15.0947C86.1882 15.0947 85.432 16.1684 85.432 18.3158C85.432 20.4632 86.1882 21.5368 87.7005 21.5368Z" fill="#0F62FE"/>
<path d="M96.0821 12.8421H99.0998L99.1622 14.3158H99.2039C100.009 13.193 100.959 12.6316 102.055 12.6316C102.721 12.6316 103.262 12.7579 103.678 13.0105C104.095 13.2632 104.469 13.6982 104.802 14.3158H104.844C105.815 13.193 106.904 12.6316 108.111 12.6316C109.291 12.6316 110.144 12.9614 110.671 13.6211C111.212 14.2807 111.483 15.4035 111.483 16.9895V23.7895H108.278V17.6211C108.278 16.6386 108.181 15.986 107.987 15.6632C107.806 15.3404 107.466 15.1789 106.967 15.1789C106.537 15.1789 106.169 15.4105 105.864 15.8737C105.558 16.3228 105.406 16.9053 105.406 17.6211V23.7895H102.201V17.6211C102.201 16.6386 102.111 15.986 101.93 15.6632C101.75 15.3404 101.41 15.1789 100.91 15.1789C100.48 15.1789 100.113 15.4105 99.8074 15.8737C99.5022 16.3228 99.3496 16.9053 99.3496 17.6211V23.7895H96.0821V12.8421Z" fill="#0F62FE"/>
<path d="M115.483 10.7368V8H119V10.7368H115.483ZM115.483 23.7895V12.8421H119V23.7895H115.483Z" fill="#0F62FE"/>
</svg>
